<mxfile host="app.diagrams.net" modified="2023-06-01T15:55:30.530Z" agent="Mozilla/5.0 (Macintosh; Intel Mac OS X 10_15_7) AppleWebKit/605.1.15 (KHTML, like Gecko) Version/16.4 Safari/605.1.15" etag="4Z35-FY1WydYOW9i2AT2" version="21.3.6" type="device">
  <diagram name="Page-1" id="p14CCQCcuMVoi4WhZ__a">
    <mxGraphModel dx="809" dy="619" grid="1" gridSize="10" guides="1" tooltips="1" connect="1" arrows="1" fold="1" page="1" pageScale="1" pageWidth="827" pageHeight="1169" math="0" shadow="0">
      <root>
        <mxCell id="0" />
        <mxCell id="1" parent="0" />
        <mxCell id="46OJ-M16s_duYPc91Wvv-34" style="edgeStyle=orthogonalEdgeStyle;rounded=0;orthogonalLoop=1;jettySize=auto;html=1;entryX=0.5;entryY=0;entryDx=0;entryDy=0;exitX=0.5;exitY=0;exitDx=0;exitDy=0;jumpStyle=none;" parent="1" source="46OJ-M16s_duYPc91Wvv-29" target="46OJ-M16s_duYPc91Wvv-33" edge="1">
          <mxGeometry relative="1" as="geometry" />
        </mxCell>
        <mxCell id="46OJ-M16s_duYPc91Wvv-29" value="Pessoa" style="ellipse;whiteSpace=wrap;html=1;fillColor=none;" parent="1" vertex="1">
          <mxGeometry x="120" y="600" width="160" height="160" as="geometry" />
        </mxCell>
        <mxCell id="46OJ-M16s_duYPc91Wvv-38" style="edgeStyle=orthogonalEdgeStyle;rounded=0;orthogonalLoop=1;jettySize=auto;html=1;entryX=0.5;entryY=1;entryDx=0;entryDy=0;exitX=0.5;exitY=1;exitDx=0;exitDy=0;" parent="1" source="46OJ-M16s_duYPc91Wvv-33" target="46OJ-M16s_duYPc91Wvv-29" edge="1">
          <mxGeometry relative="1" as="geometry" />
        </mxCell>
        <mxCell id="46OJ-M16s_duYPc91Wvv-33" value="UniÃ£o" style="ellipse;whiteSpace=wrap;html=1;fillColor=none;" parent="1" vertex="1">
          <mxGeometry x="380" y="600" width="160" height="160" as="geometry" />
        </mxCell>
        <UserObject label="Gerou" placeholders="1" name="Variable" id="46OJ-M16s_duYPc91Wvv-36">
          <mxCell style="text;html=1;strokeColor=none;fillColor=none;align=center;verticalAlign=middle;whiteSpace=wrap;overflow=hidden;" parent="1" vertex="1">
            <mxGeometry x="290" y="790" width="80" height="20" as="geometry" />
          </mxCell>
        </UserObject>
        <UserObject label="Pertenceu" placeholders="1" name="Variable" id="46OJ-M16s_duYPc91Wvv-37">
          <mxCell style="text;html=1;strokeColor=none;fillColor=none;align=center;verticalAlign=middle;whiteSpace=wrap;overflow=hidden;" parent="1" vertex="1">
            <mxGeometry x="290" y="560" width="80" height="20" as="geometry" />
          </mxCell>
        </UserObject>
      </root>
    </mxGraphModel>
  </diagram>
</mxfile>
